<?xml version="1.0" encoding="UTF-8" standalone="no"?>
<svg
   xmlns:dc="http://purl.org/dc/elements/1.1/"
   xmlns:cc="http://creativecommons.org/ns#"
   xmlns:rdf="http://www.w3.org/1999/02/22-rdf-syntax-ns#"
   xmlns:svg="http://www.w3.org/2000/svg"
   xmlns="http://www.w3.org/2000/svg"
   id="svg8"
   version="1.1"
   viewBox="0 0 21.94828 7.3995652"
   height="7.3995652mm"
   width="21.94828mm">
  <defs
     id="defs2" />
  <metadata
     id="metadata5">
    <rdf:RDF>
      <cc:Work
         rdf:about="">
        <dc:format>image/svg+xml</dc:format>
        <dc:type
           rdf:resource="http://purl.org/dc/dcmitype/StillImage" />
        <dc:title></dc:title>
      </cc:Work>
    </rdf:RDF>
  </metadata>
  <g
     transform="translate(-42.916942,-81.270221)"
     id="layer1">
    <g
       id="flowRoot823"
       style="font-style:italic;font-variant:normal;font-weight:500;font-stretch:normal;font-size:40px;line-height:1.25;font-family:Z003;-inkscape-font-specification:'Z003, Medium Italic';font-variant-ligatures:normal;font-variant-caps:normal;font-variant-numeric:normal;font-feature-settings:normal;text-align:start;letter-spacing:0px;word-spacing:0px;writing-mode:lr-tb;text-anchor:start;fill:#3b506c;fill-opacity:1;stroke:none"
       transform="scale(0.26458333)"
       aria-label="oiler">
      <path
         d="m 221.16016,307.48047 c -1.6,0 -2.84079,0.59937 -4.80078,2.35937 -1.76,1.56 -2.19875,2.20063 -2.71876,3.64063 -0.31999,0.96 -1.20156,4.19898 -1.60156,5.95898 l -2.8789,12.51953 c -0.04,0.24 -0.0801,0.48071 -0.0801,0.72071 0,1.24 0.68031,2.43945 1.32031,2.43945 h 0.24023 0.11915 c 0.24,0.12 1.52109,-0.75883 7.12109,-4.79883 v -0.88086 c -0.84,0.48 -0.84055,0.48055 -2.56055,1.56055 -1.16,0.72 -1.84125,1.03906 -2.28125,1.03906 -0.4,0 -0.71875,-0.47906 -0.71875,-1.03906 v -0.36133 -0.35937 c 0,-0.72 1.7993,-8.47914 3.2793,-14.11914 1.56,-5.92 1.91969,-6.60157 3.67969,-6.60157 0.6,0 1.00093,0.0412 1.96093,0.28125 l 1.72071,-2.12109 c -0.84,-0.2 -1.24078,-0.23828 -1.80078,-0.23828 z m -14.24024,2.47851 c -1.12,0.88 -2.03976,1.60008 -2.75976,2.08008 0.28,0.84 0.63953,1.52078 1.51953,2.80078 1.12,-1 1.23961,-1.12015 2.59961,-2.16015 -0.12,-0.24 -0.19953,-0.39992 -0.51953,-0.91992 -0.24,-0.48 -0.27961,-0.4793 -0.59961,-1.2793 z m -12.56054,8.20118 c -1.6,0 -4.15954,1.15992 -6.51954,2.91992 -2.56,1.92 -4.35937,6.08008 -4.35937,10.08008 0,2.4 1.36047,3.95898 3.48047,3.95898 1.12,0 2.27812,-0.39937 4.07812,-1.35937 2,-1.12 3.32102,-2.12102 4.04102,-3.04102 1.6,-2.2 2.88086,-6.11891 2.88086,-8.87891 0,-2.16 -1.48157,-3.67968 -3.60156,-3.67968 z m 11.28124,0 c -0.68,0 -3.04031,1.31953 -6.32031,3.51953 l -0.0801,1.11914 c 2.44,-1.32 2.55993,-1.35938 2.91993,-1.35938 0.32,0 0.48046,0.23969 0.48046,0.67969 0,0.56 -0.1207,1.12039 -0.7207,3.40039 -1.88,6.96 -1.88086,6.96 -1.88086,8 0,0.96 0.36094,1.59961 0.96094,1.59961 0.68,0 1.76086,-0.51891 3.88086,-1.87891 0.76,-0.48 1.5193,-0.96046 2.2793,-1.48046 0.36,-0.2 0.63914,-0.39969 1.11914,-0.67969 l 0.16015,-1.1211 -0.67968,0.36133 c -2.76,1.52 -3.24071,1.71875 -3.72071,1.71875 -0.44,0 -0.71875,-0.43914 -0.71875,-1.11914 0,-0.68 3.2e-4,-0.68094 1.32031,-5.96094 1.48,-6.08 1.47852,-6.08039 1.47852,-6.40039 0,-0.24 -0.19851,-0.39843 -0.47852,-0.39843 z m 22.03907,0 c -0.88,0 -1.47946,0.19875 -2.43946,0.71875 -1.52,0.88 -2.87968,1.95992 -3.67968,2.91992 -1.52,1.84 -2.88086,6.24047 -2.88086,9.48047 0,2.36 1.24125,3.83984 3.28125,3.83984 2.36,0 5.39843,-1.75984 8.39844,-4.83984 l 0.041,-1.16016 c -3.2,2.72 -4.91945,3.7207 -6.43945,3.7207 -1.04,0 -1.8411,-0.6807 -2.1211,-1.7207 -0.16,-0.64 -0.19922,-1.08023 -0.19922,-2.24023 1.84001,-1.16 2.96032,-1.95875 5.32032,-3.71875 2.2,-1.64 3,-2.95977 3,-4.75977 0,-1.4 -0.84125,-2.24023 -2.28125,-2.24023 z m 10.96093,0 c -0.52,0 -4.04046,1.72015 -6.48046,3.16015 l -0.1211,1.08008 c 2.32,-1.12 2.36086,-1.16016 2.88086,-1.16016 0.52,0 0.75977,0.27985 0.75977,0.83985 0,0.56 -0.39891,2.40015 -0.87891,4.16015 L 232.40039,335 l 3.08008,-1.16016 3,-11.40039 c 1.36,-1.04 2.27937,-1.40039 3.35937,-1.40039 0.88,0 1.39914,0.32024 2.11914,1.24024 l 1.20118,-3.79883 c -0.72,-0.24 -1.08047,-0.32031 -1.48047,-0.32031 -0.76,0 -1.56063,0.35914 -2.64063,1.11914 -0.52,0.4 -1.03961,0.80015 -1.59961,1.16015 -0.24,0.2 -0.51976,0.40055 -0.75976,0.56055 l 0.48047,-2.40039 c 0,-0.24 -0.23954,-0.43945 -0.51954,-0.43945 z M 226,319.83984 c 0.64,0 1.08008,0.64063 1.08008,1.64063 0,2 -1.16031,3.27898 -5.32031,5.95898 0.68,-4.32 2.48023,-7.59961 4.24023,-7.59961 z m -33.7207,0.19922 c 1.6,0 2.60156,1.52094 2.60156,3.96094 0,1.72 -0.56148,3.75875 -1.52148,5.71875 -1.16,2.28 -2.59915,3.52148 -4.11915,3.52148 -1.64,0 -2.67968,-1.47976 -2.67968,-3.75976 0,-4.64 2.91875,-9.44141 5.71875,-9.44141 z"
         id="path847" />
    </g>
    <g
       id="flowRoot831"
       style="font-style:italic;font-variant:normal;font-weight:500;font-stretch:normal;font-size:42.66666794px;line-height:1.25;font-family:Z003;-inkscape-font-specification:'Z003, Medium Italic';font-variant-ligatures:normal;font-variant-caps:normal;font-variant-numeric:normal;font-feature-settings:normal;text-align:start;letter-spacing:0px;word-spacing:0px;writing-mode:lr-tb;text-anchor:start;fill:#0c66ff;fill-opacity:1;stroke:none"
       transform="matrix(0.26458333,0,0,0.26458333,-38.854308,-27.294901)"
       aria-label="T">
      <path
         d="m 336.66211,410.32422 c -1.74933,2.98666 -1.96205,3.20117 -3.49805,3.20117 -0.42667,0 -1.36679,-0.0433 -2.68945,-0.0859 -6.22934,-0.29866 -6.91096,-0.34179 -8.4043,-0.34179 -7.46667,0 -13.01367,4.05428 -13.01367,9.51562 0,1.408 0.29841,2.55941 1.06641,4.05274 l 3.20117,-2.08985 c -0.81066,-2.048 -0.98242,-2.73111 -0.98242,-3.92578 0,-2.432 1.1105,-4.22375 3.20117,-5.20508 1.10933,-0.512 2.55989,-0.72656 4.94922,-0.72656 0.93867,0 1.10917,0.002 3.83984,0.21484 L 320.875,428.8418 c -1.53601,6.272 -2.34599,7.3391 -5.97266,7.50976 l -1.49414,1.66406 c 10.28267,0 10.92291,-0.0858 14.37891,-2.00585 l 0.0859,-0.3418 c -1.92,0.256 -4.56544,0.42773 -6.91211,0.42773 -0.34133,0 -1.06689,-0.0433 -1.96289,-0.0859 3.28534,-2.77333 4.35278,-4.30812 5.07812,-7.55079 l 3.32813,-13.35546 c 5.54666,0.46934 5.58837,0.46875 6.48437,0.46875 2.00533,0 2.30413,-0.4261 3.32813,-4.60743 z"
         id="path853" />
    </g>
  </g>
</svg>
